# xmcd CD database file
#
# Track frame offsets:
#	150
#	21945
#	45489
#	65652
#	87446
#
# Disc length: 1479 seconds
#
# Revision: 0
# Processed by: cddbd v1.5PL3 Copyright (c) Steve Scherf et al.
# Submitted via: CDex 1.51
#
DISCID=3c05c505
DTITLE=ヒバリ - 世界中のこどもたちが
DYEAR=2004
DGENRE=J ポップ
TTITLE0=世界中のこどもたちが(BRISA BRASILEIRA)
TTITLE1=Spring Again
TTITLE2=世界中のこどもたちが(KAORI meets I..S.O.)
TTITLE3=世界中のこどもたちが(BRISA BRASILEIRA Less Vocal)
TTITLE4=Spring Again(Less Vocal)
EXTD=YEAR: 2004
EXTT0=
EXTT1=
EXTT2=
EXTT3=
EXTT4=
PLAYORDER=
